#!OML:ASF X:\für Bonn\!DataBase\2005_08_11_Bastian_Final\c3d\Bastian.ASF
:FULLY-SPECIFIED
:DEGREES
76
root 4.4492 18.2297 -4.6777 122.964 26.1546 -196.714
lowerback 47.312 0.966484 -5.29353
upperback 20.2633 8.66417 -8.88328
thorax 3.73206 9.25977 -9.53081
lowerneck -13.8346 -4.76263 0.598398
upperneck -0.235936 -6.15527 0.516075
head 2.30022 -2.9168 -0.311189
rclavicle 1.17283e-014 3.65764e-014
rhumerus 9.35702 39.6624 -82.9243
rradius 108.306
rwrist -3.55895
rhand -13.6494 4.5633
rfingers 7.12502
rthumb 12.4671 -25.0448
lclavicle 1.17283e-014 3.65764e-014
lhumerus -42.8424 -15.7851 87.6236
lradius 132.931
lwrist 28.7067
lhand -6.28412 -29.6634
lfingers 7.12502
lthumb 19.5592 -0.627281
rfemur 36.4825 11.5544 14.7971
rtibia 32.7784
rfoot 18.8432 20.1978
rtoes 12.6532
lfemur -52.8788 16.1031 20.8556
ltibia 18.481
lfoot -21.6566 28.1709
ltoes -17.617
77
root 4.44675 18.2054 -4.74565 122.689 26.2599 -197.026
lowerback 47.1586 0.933774 -5.29871
upperback 20.3212 8.65618 -9.09213
thorax 3.8495 9.29299 -9.73349
lowerneck -13.0498 -4.82023 -0.058173
upperneck -0.379361 -6.1508 0.613883
head 2.13487 -2.92436 -0.144685
rclavicle -1.53064e-014 7.07673e-014
rhumerus 7.82481 39.8425 -83.8387
rradius 107.603
rwrist -3.32813
rhand -13.529 4.15402
rfingers 7.12502
rthumb 12.5832 -25.447
lclavicle -1.53064e-014 7.07673e-014
lhumerus -40.1828 -15.6398 87.1263
lradius 132.871
lwrist 28.4646
lhand -6.62707 -29.4854
lfingers 7.12502
lthumb 19.2295 -0.416118
rfemur 37.0535 11.8784 15.0095
rtibia 32.7433
rfoot 17.6985 19.2221
rtoes 13.6085
lfemur -54.676 17.4216 19.4346
ltibia 21.4618
lfoot -20.4692 26.6452
ltoes -18.8128
78
root 4.44491 18.1814 -4.81147 122.597 26.2663 -197.234
lowerback 45.8597 0.688711 -5.00435
upperback 21.2978 8.59793 -9.28575
thorax 4.10363 9.27123 -10.0431
lowerneck -12.4937 -4.83344 -0.572092
upperneck -0.413105 -6.11132 0.615319
head 2.04074 -2.91444 -0.0401373
rclavicle -2.38542e-014 -2.38542e-015
rhumerus 6.2783 40.0175 -84.7832
rradius 106.899
rwrist -2.94313
rhand -13.5002 3.98583
rfingers 7.12502
rthumb 12.611 -25.6135
lclavicle -2.38542e-014 -2.38542e-015
lhumerus -37.3901 -15.5464 86.4995
lradius 132.538
lwrist 28.3895
lhand -7.07416 -29.3875
lfingers 7.12502
lthumb 18.7995 -0.275934
rfemur 37.4799 12.0374 15.1151
rtibia 32.7288
rfoot 16.5466 18.353
rtoes 14.486
lfemur -56.872 18.5758 17.8172
ltibia 25.4143
lfoot -17.9901 25.0252
ltoes -21.4076
79
root 4.44206 18.1517 -4.88144 122.661 26.1926 -197.304
lowerback 45.5649 0.535878 -4.95404
upperback 21.3241 8.41678 -9.45463
thorax 4.19267 9.18702 -10.1701
lowerneck -12.0962 -4.82674 -1.05314
upperneck -0.399317 -6.04839 0.565899
head 1.98835 -2.89174 0.0386132
rclavicle 2.18663e-014 1.41535e-013
rhumerus 4.73023 40.229 -85.7061
rradius 106.281
rwrist -2.41152
rhand -13.4888 3.98696
rfingers 7.12502
rthumb 12.6219 -25.6117
lclavicle 2.18663e-014 1.41535e-013
lhumerus -34.6051 -15.4457 85.8256
lradius 131.976
lwrist 28.5263
lhand -7.57671 -29.3957
lfingers 7.12502
lthumb 18.3161 -0.238025
rfemur 37.8292 12.167 15.271
rtibia 32.7514
rfoot 15.3739 17.5104
rtoes 15.0467
lfemur -61.3655 24.0649 11.1155
ltibia 29.9959
lfoot -11.5458 17.8313
ltoes -25.642
80
root 4.44108 18.123 -4.9459 122.832 26.0186 -197.274
lowerback 45.2315 0.336836 -4.90099
upperback 21.3445 8.16668 -9.60494
thorax 4.26848 9.05745 -10.2554
lowerneck -11.7224 -4.79924 -1.46728
upperneck -0.389418 -5.96747 0.477414
head 1.93506 -2.86011 0.0939106
rclavicle 1.70955e-014 3.97569e-014
rhumerus 3.16043 40.4174 -86.6573
rradius 105.775
rwrist -1.80018
rhand -13.4708 4.1291
rfingers 7.12502
rthumb 12.6393 -25.4685
lclavicle 1.70955e-014 3.97569e-014
lhumerus -31.9109 -15.3544 85.1691
lradius 131.356
lwrist 28.6852
lhand -8.20122 -29.3399
lfingers 7.12502
lthumb 17.7152 -0.12688
rfemur 38.1007 12.2424 15.4246
rtibia 32.8099
rfoot 14.2206 16.8045
rtoes 15.2832
lfemur -65.2669 26.8936 6.75774
ltibia 35.0382
lfoot -7.21004 13.184
ltoes -30.3482
81
root 4.44102 18.0928 -5.00803 123.108 25.804 -197.149
lowerback 44.8893 0.0981585 -4.78867
upperback 21.3349 7.8644 -9.7431
thorax 4.30057 8.89337 -10.3475
lowerneck -11.3783 -4.76406 -1.84707
upperneck -0.351921 -5.88443 0.405441
head 1.89558 -2.82668 0.147276
rclavicle -9.18385e-014 -3.33958e-014
rhumerus 1.50946 40.5898 -87.6799
rradius 105.412
rwrist -1.09839
rhand -13.4181 4.33832
rfingers 7.12502
rthumb 12.6901 -25.2561
lclavicle -9.18385e-014 -3.33958e-014
lhumerus -29.4733 -15.2879 84.5448
lradius 130.846
lwrist 28.8893
lhand -8.92001 -29.0848
lfingers 7.12502
lthumb 17.0234 0.189327
rfemur 38.2823 12.2513 15.5856
rtibia 32.9203
rfoot 13.112 16.1551
rtoes 15.6778
lfemur -68.8251 28.6772 3.40161
ltibia 40.2805
lfoot -3.29869 9.58363
ltoes -34.9517
82
root 4.44154 18.0605 -5.06753 123.463 25.5275 -196.935
lowerback 44.5553 -0.172454 -4.66592
upperback 21.325 7.51923 -9.8476
thorax 4.31867 8.70111 -10.3965
lowerneck -11.0924 -4.73003 -2.19318
upperneck -0.347766 -5.80189 0.282062
head 1.85233 -2.79239 0.17767
rclavicle 1.19271e-014 -1.35174e-014
rhumerus -0.137077 40.7311 -88.6967
rradius 105.149
rwrist -0.457698
rhand -13.2518 4.60798
rfingers 7.12502
rthumb 12.8505 -24.9764
lclavicle 1.19271e-014 -1.35174e-014
lhumerus -27.335 -15.1742 84.0018
lradius 130.31
lwrist 29.14
lhand -9.67254 -28.8251
lfingers 7.12502
lthumb 16.299 0.50991
rfemur 38.3968 12.1601 15.7142
rtibia 33.0819
rfoot 12.0049 15.6177
rtoes 15.9067
lfemur -71.9826 29.8206 0.625173
ltibia 45.545
lfoot 0.668139 6.64938
ltoes -35.3458
83
root 4.44236 18.0236 -5.12672 123.9 25.1795 -196.655
lowerback 44.2121 -0.483813 -4.49153
upperback 21.3068 7.14112 -9.96496
thorax 4.32482 8.4974 -10.4788
lowerneck -10.8496 -4.70696 -2.46736
upperneck -0.355944 -5.74275 0.175609
head 1.81105 -2.76793 0.199096
rclavicle -3.33958e-014 3.97569e-015
rhumerus -1.82723 40.7752 -89.7707
rradius 104.986
rwrist 0.164765
rhand -13.0128 4.8843
rfingers 7.12502
rthumb 13.0809 -24.6855
lclavicle -3.33958e-014 3.97569e-015
lhumerus -25.4364 -15.132 83.4707
lradius 129.763
lwrist 29.5288
lhand -10.4257 -28.4231
lfingers 7.12502
lthumb 15.5737 0.969838
rfemur 38.4208 11.9744 15.7717
rtibia 33.3291
rfoot 10.8776 15.1777
rtoes 16.122
lfemur -74.7836 30.5227 -1.78881
ltibia 50.7031
lfoot 4.79371 4.01804
ltoes -35.0481
